<?xml version="1.0" standalone="no"?>
<!DOCTYPE svg PUBLIC "-//W3C//DTD SVG 20010904//EN"
 "http://www.w3.org/TR/2001/REC-SVG-20010904/DTD/svg10.dtd">
<svg version="1.0" xmlns="http://www.w3.org/2000/svg"
 width="540.000000pt" height="540.000000pt" viewBox="0 0 540.000000 540.000000"
 preserveAspectRatio="xMidYMid meet">
<metadata>
Created by potrace 1.14, written by Peter Selinger 2001-2017
</metadata>
<g transform="translate(0.000000,540.000000) scale(0.100000,-0.100000)"
fill="#000000" stroke="none">
<path d="M550 3955 c0 -3 65 -174 145 -381 80 -207 145 -378 145 -380 0 -2
142 -4 316 -4 296 0 315 1 310 18 -3 9 -68 181 -144 382 l-138 365 -317 3
c-174 1 -317 0 -317 -3z"/>
<path d="M2531 3938 c-5 -13 -71 -178 -146 -368 -76 -190 -140 -353 -142 -362
-5 -17 24 -18 516 -18 286 0 521 1 521 3 0 3 -38 99 -62 157 -5 14 -63 156
-127 315 l-117 290 -217 3 -217 2 -9 -22z"/>
<path d="M4245 3773 c-37 -104 -81 -224 -97 -268 -81 -223 -108 -299 -108
-307 0 -4 118 -8 263 -8 l263 0 142 368 c78 202 144 375 148 385 6 16 -11 17
-269 17 l-274 0 -68 -187z"/>
<path d="M1110 2965 l94 -95 -29 -32 c-17 -18 -58 -62 -92 -98 l-62 -65 51 -3
c57 -3 54 -6 155 111 l33 37 71 -75 72 -75 58 0 c33 0 59 2 59 3 0 2 -45 48
-100 103 -55 54 -100 101 -100 104 0 3 36 43 79 90 l79 85 -46 3 c-46 4 -48 3
-108 -63 l-61 -66 -63 65 -63 66 -61 0 -61 0 95 -95z"/>
<path d="M2030 2866 l0 -196 45 0 c29 0 45 4 46 13 0 6 0 40 -1 75 l-1 62 45
0 c42 0 49 -4 123 -75 l78 -75 63 0 c34 0 62 2 62 3 0 2 -39 35 -86 73 l-86
69 52 7 c74 9 82 21 84 117 1 119 8 115 -229 119 l-195 3 0 -195z m329 102 c4
-12 5 -34 1 -48 -6 -25 -8 -25 -123 -28 l-117 -3 0 51 0 50 115 0 c110 0 116
-1 124 -22z"/>
<path d="M3039 3018 c0 -53 0 -271 0 -315 1 -32 2 -33 46 -33 l45 0 0 74 0 75
150 3 c186 4 185 3 184 118 -1 118 7 114 -229 118 l-195 3 -1 -43z m332 -63
c11 -60 1 -65 -126 -65 l-115 0 0 50 0 51 117 -3 118 -3 6 -30z"/>
<path d="M4020 2865 l0 -195 190 0 c162 0 190 2 191 15 5 54 15 50 -143 53
l-148 3 0 159 0 160 -45 0 -45 0 0 -195z"/>
<path d="M1094 2558 c-3 -4 100 -279 228 -612 l233 -606 215 0 215 0 24 63
c13 34 30 76 37 92 7 17 33 80 57 140 25 61 110 272 190 470 80 198 154 383
165 410 l20 50 -244 0 c-133 -1 -245 -3 -248 -5 -2 -3 -35 -83 -73 -178 l-69
-172 -64 171 c-35 93 -69 173 -74 177 -15 9 -607 9 -612 0z"/>
<path d="M2950 2558 c0 -4 11 -33 24 -65 14 -32 123 -304 242 -606 l218 -547
209 2 209 3 234 604 c129 332 232 607 229 610 -4 3 -117 6 -252 6 -235 0 -246
-1 -258 -20 -7 -11 -37 -89 -66 -172 -30 -84 -56 -153 -59 -153 -3 0 -37 78
-75 173 l-70 172 -293 0 c-160 0 -292 -3 -292 -7z"/>
</g>
</svg>
